<?xml version="1.0" standalone="no"?>
<!DOCTYPE svg PUBLIC "-//W3C//DTD SVG 20010904//EN"
 "http://www.w3.org/TR/2001/REC-SVG-20010904/DTD/svg10.dtd">
<svg version="1.0" xmlns="http://www.w3.org/2000/svg"
 width="800.000000pt" height="800.000000pt" viewBox="0 0 800.000000 800.000000"
 preserveAspectRatio="xMidYMid meet">
<metadata>
Created by potrace 1.14, written by Peter Selinger 2001-2017
</metadata>
<g transform="translate(0.000000,800.000000) scale(0.100000,-0.100000)"
fill="#000000" stroke="none">
<path d="M3970 6504 c0 -8 -5 -14 -11 -14 -5 0 -8 4 -5 8 3 5 -1 9 -9 9 -8 0
-12 -4 -9 -9 5 -8 -11 -12 -30 -9 -5 1 -6 -6 -2 -15 6 -14 4 -15 -9 -4 -13 11
-16 11 -13 -1 2 -8 -5 -14 -14 -14 -10 0 -25 -9 -35 -20 -18 -19 -18 -19 7 0
l25 20 -19 -22 c-20 -24 -52 -32 -41 -10 4 6 -5 -1 -19 -16 -14 -15 -26 -22
-26 -15 0 10 -3 9 -9 -2 -6 -8 -8 -17 -5 -21 2 -4 -5 -5 -16 -2 -18 5 -24 -3
-22 -27 0 -3 -14 -5 -32 -4 -25 1 -33 -2 -32 -15 1 -11 -6 -16 -21 -15 -13 1
-20 -3 -17 -7 3 -5 -4 -9 -14 -9 -11 0 -34 -14 -51 -32 -17 -17 -31 -26 -31
-20 0 7 5 12 10 12 6 0 10 5 10 10 0 17 -49 -23 -50 -40 0 -12 -2 -13 -9 -1
-5 7 -14 10 -20 7 -6 -4 -9 -11 -6 -16 3 -4 -2 -11 -11 -14 -8 -3 -12 -11 -8
-17 4 -8 3 -9 -5 -5 -7 5 -9 13 -4 20 4 7 1 4 -8 -5 -14 -16 -16 -16 -26 0 -9
13 -10 10 -6 -14 3 -21 2 -26 -5 -16 -8 11 -12 10 -21 -8 -7 -12 -16 -19 -22
-16 -5 4 -9 1 -9 -6 0 -9 -4 -9 -15 1 -12 10 -14 8 -10 -8 3 -15 -1 -19 -16
-15 -13 4 -26 -3 -39 -19 -13 -18 -27 -24 -45 -22 -20 2 -24 -1 -15 -10 8 -10
4 -13 -15 -10 -22 2 -24 0 -14 -12 10 -12 9 -13 -6 -8 -10 4 -21 1 -26 -7 -6
-10 -9 -10 -9 -1 0 6 -4 12 -9 12 -5 0 -7 -10 -5 -22 2 -13 1 -17 -2 -9 -5 11
-10 8 -21 -10 -8 -13 -12 -16 -9 -7 3 10 1 20 -5 23 -5 4 -9 3 -8 -2 3 -13
-12 -43 -23 -43 -5 0 -6 6 -2 13 6 9 5 9 -8 0 -8 -7 -19 -9 -24 -5 -4 4 -3 0
4 -9 10 -14 10 -18 -3 -23 -9 -3 -13 -2 -10 4 3 6 1 10 -4 10 -6 0 -11 -4 -11
-10 0 -14 -48 -43 -73 -45 -14 -1 -21 -8 -21 -18 1 -9 -2 -15 -6 -12 -14 9
-40 -6 -33 -19 4 -6 -1 -5 -10 3 -15 12 -17 12 -11 -2 4 -12 0 -15 -20 -13
-21 3 -24 1 -15 -10 8 -10 6 -12 -10 -9 -13 2 -21 -1 -21 -10 0 -8 -7 -11 -20
-8 -12 3 -20 0 -20 -6 0 -7 5 -9 12 -5 7 4 8 3 4 -5 -6 -9 -11 -9 -24 1 -13
11 -14 11 -7 -1 6 -11 3 -13 -14 -8 -17 4 -20 3 -11 -7 8 -10 5 -13 -15 -11
-14 2 -23 -1 -19 -6 3 -5 10 -7 15 -4 5 4 9 4 9 1 0 -3 -10 -10 -21 -17 -15
-8 -19 -8 -15 0 4 6 2 11 -3 11 -6 0 -11 -7 -11 -16 0 -8 -4 -13 -9 -10 -5 3
-11 -1 -15 -9 -3 -9 -12 -12 -22 -8 -12 5 -15 3 -9 -6 6 -10 3 -11 -15 -1 -20
11 -21 10 -11 -8 9 -18 8 -19 -11 -14 -16 4 -19 2 -13 -9 8 -12 6 -12 -8 0
-15 12 -17 12 -11 -3 5 -12 2 -15 -12 -9 -12 4 -15 3 -10 -5 5 -8 0 -12 -14
-12 -13 0 -19 -4 -14 -12 4 -6 3 -8 -4 -4 -12 7 -62 -13 -62 -26 0 -5 -8 -8
-17 -6 -10 2 -17 -3 -15 -9 1 -7 -3 -13 -9 -13 -5 0 -8 -4 -5 -9 3 -4 -5 -6
-18 -4 -17 4 -27 -1 -36 -16 -6 -12 -15 -19 -21 -15 -13 8 -40 -15 -33 -28 4
-6 -3 -5 -15 1 -18 10 -20 9 -14 -6 5 -12 2 -15 -10 -10 -12 4 -17 1 -17 -11
0 -15 -2 -15 -10 -2 -7 11 -10 11 -10 2 0 -7 -4 -11 -8 -8 -5 3 -20 -6 -35
-20 -15 -14 -32 -22 -39 -18 -7 5 -8 3 -3 -6 6 -10 4 -12 -7 -7 -11 4 -18 -1
-21 -14 -3 -11 -14 -19 -26 -19 -12 0 -21 -5 -21 -10 0 -6 -6 -9 -12 -8 -7 2
-12 -3 -10 -11 3 -12 1 -12 -14 0 -10 8 -15 9 -11 3 3 -6 -6 -17 -21 -25 -15
-8 -34 -22 -44 -32 -12 -13 -17 -15 -21 -5 -3 7 -6 3 -6 -10 -1 -16 -5 -21
-13 -16 -7 4 -4 -3 6 -15 13 -14 15 -20 5 -16 -10 4 -14 -4 -15 -29 0 -19 3
-33 8 -30 4 3 5 -2 2 -10 -4 -10 -1 -16 7 -16 12 0 12 -2 0 -9 -8 -5 -15 -23
-16 -40 -2 -17 0 -29 4 -27 4 3 7 -4 7 -15 0 -12 -5 -18 -14 -14 -8 3 -10 0
-5 -8 12 -20 13 -40 0 -56 -8 -10 -8 -13 -1 -8 7 4 15 0 18 -9 3 -8 2 -12 -3
-9 -5 3 -12 1 -16 -5 -3 -5 -1 -10 5 -10 6 0 9 -4 5 -9 -3 -5 -1 -12 4 -16 7
-4 7 -15 1 -31 -12 -32 -12 -37 0 -29 6 3 7 -1 4 -9 -3 -9 -11 -13 -18 -9 -6
3 -2 -4 9 -17 11 -13 15 -20 9 -17 -7 4 -15 0 -18 -9 -3 -8 -2 -12 4 -9 14 9
12 -29 -2 -44 -7 -8 -8 -11 -3 -9 6 3 17 -1 25 -10 13 -14 12 -15 -2 -10 -24
10 -32 -21 -11 -45 10 -11 13 -17 7 -14 -15 9 -27 -20 -12 -29 7 -4 8 -3 4 4
-5 8 -1 10 9 5 12 -4 13 -8 5 -13 -7 -5 -9 -13 -5 -20 5 -8 4 -11 -2 -7 -6 4
-14 0 -17 -9 -3 -8 -2 -13 3 -10 5 3 14 -1 21 -9 11 -13 10 -14 -6 -8 -17 6
-17 5 -5 -10 12 -15 12 -17 -4 -10 -18 6 -18 5 -2 -17 15 -22 15 -24 -1 -37
-9 -8 -11 -12 -4 -8 8 4 12 -2 12 -17 0 -13 5 -29 12 -36 9 -9 7 -13 -6 -18
-14 -5 -14 -9 -4 -22 10 -12 10 -14 1 -8 -16 9 -16 1 -3 -24 7 -13 7 -21 -2
-26 -7 -5 -8 -3 -3 6 5 9 4 11 -4 6 -6 -4 -9 -12 -5 -17 3 -5 10 -7 15 -4 16
11 10 -7 -8 -22 -10 -8 -13 -12 -8 -10 6 3 16 -6 22 -19 9 -21 9 -26 -3 -31
-11 -4 -12 -9 -3 -19 6 -8 8 -14 4 -14 -4 0 -1 -8 6 -17 10 -12 11 -15 1 -9
-10 6 -12 -3 -9 -38 3 -25 1 -43 -4 -40 -13 8 -11 -10 3 -24 7 -7 8 -12 4 -12
-5 0 -2 -8 5 -17 10 -11 10 -14 2 -9 -7 4 -13 3 -13 -3 0 -5 -3 -17 -7 -27 -4
-11 -2 -15 4 -11 6 4 8 -3 5 -18 -2 -14 -8 -22 -13 -19 -5 3 -9 0 -9 -5 0 -6
7 -11 15 -11 8 0 15 -5 15 -11 0 -6 -7 -8 -17 -5 -14 6 -14 3 3 -15 10 -12 13
-19 7 -15 -16 9 -17 -6 -1 -22 9 -9 8 -12 -7 -12 -18 0 -18 0 1 -16 10 -8 13
-12 5 -8 -9 4 -12 2 -9 -7 3 -8 11 -13 17 -11 7 1 9 -2 6 -8 -4 -6 -14 -9 -24
-6 -15 6 -15 5 0 -7 14 -10 14 -14 2 -25 -11 -10 -11 -17 -3 -27 6 -8 10 -25
8 -38 -1 -13 3 -32 11 -40 11 -14 11 -18 -3 -23 -13 -5 -14 -9 -5 -20 10 -12
8 -13 -7 -8 -16 6 -16 4 4 -18 16 -18 20 -28 12 -33 -6 -4 -9 -13 -7 -19 3 -7
1 -19 -3 -26 -5 -7 -5 -23 0 -34 4 -12 4 -30 0 -41 -4 -11 -3 -28 2 -39 7 -13
7 -16 -1 -12 -6 4 -11 3 -11 -2 0 -6 7 -13 16 -16 11 -4 13 -10 6 -19 -13 -17
-21 -77 -10 -83 5 -3 2 -11 -7 -18 -15 -11 -14 -14 5 -39 15 -18 17 -25 6 -21
-11 4 -13 0 -9 -18 3 -13 11 -30 17 -38 9 -13 9 -13 -5 -2 -14 11 -16 9 -12
-12 3 -13 0 -33 -6 -45 -9 -17 -9 -21 1 -19 16 4 11 -33 -5 -45 -7 -5 -1 -6
13 -2 21 5 23 4 10 -7 -17 -14 -24 -51 -8 -42 6 4 7 -2 3 -16 -5 -17 -4 -21 6
-16 8 5 8 2 -1 -6 -21 -18 -15 -97 8 -114 15 -12 14 -13 -8 -9 -24 4 -24 4 -6
-10 11 -8 15 -15 10 -15 -6 0 -11 -7 -11 -15 0 -9 6 -14 14 -11 8 3 11 2 8 -3
-3 -5 -1 -12 5 -16 6 -4 8 -10 5 -14 -2 -5 5 -17 18 -27 19 -16 20 -16 8 -1
-12 15 -12 17 3 11 9 -3 16 -12 16 -19 0 -7 8 -12 18 -11 11 1 16 -5 15 -19
-1 -11 0 -14 3 -7 8 16 24 15 24 -2 0 -8 9 -12 24 -11 25 3 66 -27 66 -47 0
-6 7 -5 17 3 14 12 16 12 11 -2 -5 -12 -1 -15 18 -11 14 2 24 0 24 -7 0 -7 5
-9 12 -5 6 4 8 3 5 -2 -3 -6 -2 -16 4 -24 6 -11 9 -12 9 -2 0 7 5 10 10 7 6
-4 7 -12 3 -18 -4 -7 2 -5 12 3 10 8 16 10 12 3 -4 -7 5 -16 23 -25 16 -7 30
-17 30 -22 0 -4 7 -6 15 -2 8 3 14 2 14 -2 -3 -19 2 -23 16 -12 12 10 15 10
15 -3 0 -11 5 -14 17 -10 11 4 14 3 9 -5 -4 -7 -2 -12 4 -12 6 0 8 -5 4 -13
-5 -7 0 -6 11 3 17 13 18 13 13 -1 -5 -12 -1 -15 18 -13 20 2 23 0 14 -11 -8
-10 -8 -15 1 -21 7 -4 9 -3 6 3 -4 6 4 11 19 10 13 0 23 -2 20 -4 -8 -8 21
-33 38 -33 9 0 16 -4 16 -9 0 -5 11 -8 25 -6 22 2 23 0 13 -13 -9 -11 -9 -13
-1 -9 6 4 18 0 26 -8 9 -8 21 -15 27 -15 14 0 41 -26 34 -32 -2 -3 7 -4 21 -3
16 2 25 -2 25 -11 0 -8 9 -14 20 -14 11 0 20 -5 20 -12 0 -6 3 -9 6 -5 4 3 15
-4 26 -16 11 -12 17 -16 13 -10 -3 7 -1 13 4 13 6 0 11 -5 11 -11 0 -6 7 -8
16 -5 8 3 12 2 9 -4 -3 -6 1 -10 9 -10 9 0 16 -4 16 -10 0 -5 7 -10 15 -10 8
0 15 -8 15 -17 0 -15 2 -16 10 -3 7 11 10 11 10 2 0 -7 5 -10 10 -7 6 3 10 1
10 -4 0 -6 7 -11 15 -11 8 0 15 -4 15 -10 0 -5 7 -6 17 -3 10 4 14 2 9 -5 -7
-12 27 -35 38 -25 3 3 6 -2 6 -13 0 -16 2 -17 10 -4 7 11 10 11 10 2 0 -7 5
-10 10 -7 6 3 10 1 10 -4 0 -6 9 -11 20 -11 13 0 20 -7 20 -20 0 -23 10 -25
29 -7 10 8 12 9 7 0 -10 -18 34 -39 45 -22 5 8 9 9 9 4 0 -6 -5 -16 -10 -23
-6 -6 -7 -10 -4 -7 4 3 13 0 21 -7 11 -9 12 -7 8 8 -3 12 -1 10 7 -4 8 -16 18
-22 31 -18 13 3 17 0 13 -10 -3 -8 0 -13 7 -11 7 1 11 -3 10 -10 -3 -12 14
-12 34 0 8 5 11 1 8 -14 -4 -17 -2 -19 10 -9 14 11 19 7 16 -13 -1 -4 8 -3 18
3 17 9 19 7 16 -10 -2 -11 0 -18 5 -15 13 8 41 -6 33 -18 -4 -6 0 -8 10 -4 10
4 17 2 17 -4 0 -6 6 -9 14 -6 8 3 13 -1 12 -11 -1 -12 7 -16 31 -16 25 0 30
-4 27 -19 -3 -16 -1 -17 13 -5 12 9 15 9 9 1 -6 -12 5 -18 27 -14 4 0 7 -6 7
-14 0 -9 6 -12 15 -9 8 4 17 -1 21 -9 3 -9 13 -13 25 -10 12 4 19 0 19 -10 0
-8 7 -18 16 -21 12 -5 14 -3 8 7 -5 7 -1 5 8 -6 10 -10 23 -15 29 -11 8 4 9 3
5 -4 -7 -11 21 -18 48 -13 5 1 3 -6 -5 -15 -13 -16 -12 -16 11 -4 23 12 24 12
11 -4 -8 -9 -10 -16 -5 -15 26 5 45 -2 38 -14 -5 -7 0 -6 11 3 11 9 16 10 11
3 -4 -7 -2 -14 3 -14 6 -1 16 -2 22 -3 6 0 17 -10 25 -20 10 -14 14 -16 15 -5
0 8 5 3 10 -10 8 -20 11 -22 26 -10 12 10 14 10 9 2 -4 -8 -2 -13 4 -13 6 0 8
-5 4 -12 -5 -8 0 -7 11 2 17 14 18 13 12 -3 -6 -15 -3 -17 14 -12 16 5 19 4
14 -6 -6 -9 -3 -11 9 -6 13 5 17 3 13 -7 -4 -10 -1 -13 8 -9 8 3 12 10 8 16
-3 5 -1 7 5 3 5 -3 12 -3 15 1 2 5 2 2 1 -5 -5 -17 15 -15 22 3 4 8 10 15 16
15 5 0 6 -4 3 -10 -3 -6 1 -7 9 -4 9 3 13 10 10 16 -3 5 2 8 12 6 10 -2 19 2
19 9 0 15 15 30 15 15 0 -7 5 -12 11 -12 6 0 8 7 5 16 -3 8 -2 12 3 9 5 -3 12
-1 16 5 4 6 11 7 17 4 7 -4 8 -2 4 4 -4 7 -2 13 3 13 6 1 17 2 24 3 6 1 11 8
9 16 -3 11 0 11 14 -1 10 -8 15 -9 11 -2 -5 7 4 14 23 18 19 4 30 13 30 23 0
15 2 15 10 2 8 -13 10 -13 10 2 0 12 7 16 28 13 15 -2 21 -2 15 1 -19 8 -15
24 4 17 12 -5 14 -3 8 7 -6 10 -4 12 8 7 10 -3 17 -2 17 4 0 6 4 8 9 5 5 -4
24 9 42 26 18 18 30 28 26 22 -3 -6 0 -11 7 -11 8 0 12 6 9 14 -3 9 0 11 10 7
8 -3 18 0 22 5 3 6 11 8 17 5 7 -4 8 -2 4 5 -6 9 -12 9 -24 -1 -12 -9 -11 -6
2 10 19 22 32 30 21 13 -3 -6 3 -9 14 -8 15 1 17 5 10 13 -8 9 -5 11 11 7 15
-4 19 -2 15 9 -4 9 0 15 9 15 8 0 13 -3 11 -7 -2 -4 2 -7 9 -7 8 0 11 8 9 18
-4 14 0 17 17 14 15 -3 20 0 17 9 -4 9 0 12 13 9 10 -3 21 1 26 8 5 9 2 10
-12 5 -15 -6 -16 -5 -7 5 10 10 16 9 28 -1 13 -11 14 -10 8 6 -6 17 -5 17 10
5 9 -7 18 -11 18 -7 1 3 3 11 4 16 1 6 3 15 4 21 0 5 6 7 11 4 6 -4 8 -12 4
-18 -3 -7 1 -4 9 5 8 10 20 18 26 18 7 0 9 5 5 11 -5 8 1 10 19 7 24 -5 25 -3
15 16 -6 12 -7 18 -3 14 5 -4 15 -2 23 5 13 9 14 9 8 0 -4 -7 -2 -13 3 -13 6
0 11 5 11 11 0 6 7 9 15 5 12 -4 13 -2 6 13 -9 16 -7 17 16 13 21 -4 25 -2 20
11 -6 16 8 17 32 3 10 -6 12 -5 7 2 -12 20 4 35 22 20 13 -11 15 -10 9 4 -3
10 -1 20 5 24 6 4 8 3 5 -3 -4 -6 -1 -13 7 -16 10 -4 12 1 9 16 -4 18 -3 19 6
7 9 -13 15 -8 12 12 0 4 8 5 19 3 11 -2 19 -1 19 3 -3 20 3 23 18 11 9 -8 14
-9 10 -2 -10 17 2 42 21 42 45 2 53 5 47 19 -5 13 -3 13 12 1 14 -12 16 -12 8
0 -6 11 -3 13 13 9 15 -4 19 -2 15 8 -7 19 27 31 38 13 5 -8 9 -9 9 -4 0 6 -5
16 -11 22 -7 7 -4 10 13 9 26 -2 50 12 43 24 -3 5 -1 11 5 15 5 3 10 1 10 -4
0 -6 4 -11 10 -11 5 0 7 7 4 15 -5 11 -2 13 10 9 9 -4 16 -1 16 6 0 10 3 10
15 0 9 -7 18 -10 22 -6 3 3 1 6 -5 6 -7 0 -12 5 -12 11 0 6 7 8 16 5 11 -4 18
1 21 14 3 11 9 17 14 14 5 -3 9 0 9 6 0 6 5 8 10 5 6 -3 10 -1 10 4 0 6 7 11
16 11 9 0 23 8 31 17 8 10 12 13 8 6 -6 -13 32 -10 44 3 3 4 -2 4 -11 1 -10
-4 -18 -2 -18 3 0 5 10 10 23 12 12 2 21 8 20 14 -1 6 9 10 22 8 22 -2 24 0
13 19 -10 20 -10 21 5 8 15 -12 17 -11 18 5 0 18 1 18 9 -1 7 -15 9 -16 9 -4
1 22 30 45 53 41 16 -3 23 8 19 31 -1 5 3 6 8 3 5 -4 13 -2 16 4 5 8 11 8 20
0 9 -8 15 -8 20 0 3 6 11 8 16 5 5 -3 6 2 2 11 -4 12 -3 15 5 10 7 -4 12 -2
12 5 0 6 8 9 20 6 11 -3 23 0 27 5 4 7 1 8 -7 3 -9 -6 -11 -4 -5 4 4 7 15 11
25 8 14 -3 17 0 15 13 -3 14 2 18 16 15 12 -2 23 3 26 11 5 13 8 13 15 2 7 -9
8 -6 5 10 -4 18 -3 21 8 12 10 -8 14 -7 17 2 4 11 8 11 20 0 13 -11 16 -10 14
5 -1 13 6 18 25 18 16 0 25 4 22 11 -2 6 4 17 14 25 16 12 17 12 6 -2 -10 -13
-10 -16 2 -16 7 0 14 3 13 6 -2 20 3 31 12 26 5 -3 7 0 4 8 -3 8 0 18 7 23 8
4 10 3 5 -4 -5 -8 -1 -10 10 -5 11 4 13 8 6 11 -7 2 -12 13 -12 23 0 12 4 17
11 13 8 -5 8 -1 0 13 -7 15 -7 23 2 32 9 10 8 11 -7 5 -14 -6 -17 -4 -11 6 13
21 16 72 4 64 -6 -3 -5 3 2 14 10 16 10 24 1 34 -9 11 -9 17 0 26 9 9 9 12 -2
12 -9 0 -8 6 6 21 10 11 14 20 9 19 -21 -5 -29 1 -15 10 10 6 11 10 3 10 -7 0
-13 5 -13 11 0 5 3 8 8 6 4 -3 7 8 7 24 1 16 -2 29 -6 29 -7 0 -4 44 5 59 3 5
0 12 -6 15 -9 3 -7 9 6 20 20 16 20 16 0 16 -16 0 -17 2 -4 10 10 6 11 10 3
10 -7 0 -13 5 -13 11 0 5 4 8 8 5 5 -3 9 1 9 9 0 8 -4 15 -9 15 -5 0 -6 6 -2
12 11 18 11 118 1 118 -5 0 -4 7 3 15 10 12 10 15 -1 15 -9 0 -10 3 -4 8 6 4
10 14 10 22 -1 8 3 21 8 28 7 9 6 11 -5 7 -10 -4 -14 0 -13 14 1 11 4 24 8 27
10 11 8 26 -2 20 -11 -7 -9 13 4 33 5 10 4 16 -4 19 -8 3 -9 8 -2 16 5 6 8 21
7 31 -2 11 1 26 7 33 7 9 5 11 -8 5 -15 -5 -17 -3 -12 11 4 10 7 20 7 22 0 3
4 2 10 -1 6 -3 7 1 4 9 -3 9 -11 13 -18 9 -6 -3 -6 -1 2 8 15 16 16 33 1 23
-8 -4 -8 -1 -1 13 12 21 11 41 -1 60 -4 7 -3 22 4 34 9 17 8 23 -2 30 -11 7
-11 9 1 9 12 0 12 2 1 9 -9 6 -10 10 -2 16 9 5 9 11 -1 23 -10 12 -10 14 0 8
6 -4 12 -3 12 3 0 5 -5 11 -11 13 -5 2 -7 11 -4 21 4 9 12 14 19 10 8 -4 8 -2
-1 7 -6 7 -9 19 -6 26 3 8 -1 14 -8 14 -11 0 -11 3 1 10 12 8 12 10 1 10 -10
0 -11 3 -2 14 9 10 9 16 1 21 -8 5 -8 11 -1 19 7 9 7 16 0 23 -8 8 -7 18 2 34
9 17 9 24 0 27 -6 2 -11 8 -11 13 0 6 4 8 8 5 11 -6 9 25 -3 43 -5 10 -4 12 3
7 7 -4 12 -3 12 3 0 5 -5 13 -10 16 -8 5 -7 11 1 21 9 11 9 14 0 14 -7 0 -9 5
-5 12 11 18 12 68 2 74 -5 3 -4 12 3 20 9 11 9 14 -1 14 -9 0 -9 4 1 17 11 13
11 17 2 20 -7 3 -13 9 -13 14 0 6 6 7 13 3 7 -5 6 0 -3 11 -14 17 -13 18 3 12
21 -8 22 -3 1 18 -13 12 -14 19 -4 30 10 12 10 15 0 15 -9 0 -9 4 1 17 11 13
11 17 1 21 -10 3 -10 7 -1 19 10 11 10 16 0 23 -11 6 -11 9 -1 15 10 6 8 12
-6 23 -13 10 -14 13 -3 9 12 -4 16 2 16 24 0 15 -4 26 -9 23 -12 -7 -5 19 7
29 6 6 6 10 -2 14 -7 2 -13 9 -13 14 0 6 4 8 8 5 4 -2 8 4 8 15 0 10 -4 19 -8
19 -5 0 -4 9 2 20 8 15 8 20 -1 20 -8 0 -8 4 1 15 8 10 9 15 2 15 -6 0 -9 7
-6 15 4 8 11 12 18 9 6 -3 3 1 -6 9 -18 14 -26 33 -10 24 4 -3 7 10 8 29 1 25
-4 34 -15 34 -13 0 -14 2 -2 9 17 11 24 41 9 41 -6 0 -5 6 2 15 9 11 9 15 1
15 -7 0 -9 5 -4 13 11 17 10 41 -2 50 -6 4 -4 11 5 17 12 9 12 10 -5 8 -14 -2
-20 2 -19 14 1 10 -2 15 -7 12 -5 -3 -12 2 -15 11 -4 10 -14 15 -25 12 -10 -3
-16 0 -13 7 5 13 -51 40 -65 32 -5 -4 -13 -1 -17 5 -4 8 -3 9 4 5 7 -4 12 -2
12 5 0 7 -10 9 -27 6 -26 -5 -27 -4 -8 10 19 13 19 14 -8 9 -23 -4 -28 -2 -23
10 3 8 2 13 -3 9 -5 -3 -11 -2 -14 2 -2 5 -2 2 -1 -4 5 -21 -4 -15 -21 15 -9
15 -14 19 -11 10 7 -22 -10 -24 -18 -2 -3 9 -11 12 -18 8 -8 -5 -7 0 2 11 9
11 10 16 3 11 -8 -4 -13 -2 -14 6 0 7 -4 4 -9 -7 -7 -16 -9 -16 -9 -4 -1 9
-12 20 -26 23 -17 4 -23 11 -19 24 4 10 2 13 -3 7 -13 -16 -33 -16 -33 -1 0
10 -7 13 -20 11 -11 -2 -18 0 -15 6 4 5 -3 9 -15 9 -12 0 -18 5 -15 10 6 9 -8
14 -27 11 -5 0 -8 4 -8 10 0 7 -9 9 -21 6 -16 -4 -18 -3 -8 9 12 15 4 18 -36
14 -11 -1 -17 1 -13 5 12 13 -22 37 -43 32 -16 -4 -19 -2 -15 10 6 13 4 14 -9
3 -13 -11 -16 -11 -13 1 2 8 8 18 13 22 6 5 0 6 -12 2 -15 -4 -25 0 -32 12 -6
10 -11 13 -11 5 0 -10 -3 -10 -14 0 -8 7 -11 18 -8 23 3 6 -1 4 -10 -3 -11 -9
-18 -10 -23 -2 -3 6 -11 7 -17 4 -7 -4 -8 -2 -4 5 6 9 12 9 24 -1 15 -10 15
-10 4 2 -13 15 -17 16 -48 19 -8 0 -12 6 -9 12 4 6 0 9 -11 7 -11 -2 -18 2
-17 9 1 6 -4 14 -12 17 -10 3 -12 0 -9 -12 3 -9 -3 -5 -12 11 -10 15 -23 27
-28 27 -4 0 -3 -7 4 -15 7 -8 8 -15 4 -15 -5 0 -18 12 -28 28 -9 15 -15 19
-12 10 3 -10 1 -18 -4 -18 -6 0 -10 9 -10 21 0 14 -5 19 -17 17 -10 -2 -22 5
-28 16 -5 11 -17 21 -25 24 -9 3 -7 -2 5 -12 15 -12 8 -11 -22 4 -24 11 -43
23 -43 26 0 2 9 0 20 -6 11 -6 20 -8 20 -6 0 3 -14 13 -31 22 -17 8 -28 11
-25 6 3 -6 -5 -5 -19 1 -14 7 -25 16 -25 20 0 5 -4 6 -8 3 -4 -2 -19 5 -32 16
-14 11 -19 17 -12 13 6 -3 12 -4 12 -1 0 3 -10 10 -21 17 -15 8 -19 8 -15 0 4
-6 2 -11 -3 -11 -6 0 -11 6 -11 13 0 8 -12 20 -26 27 -20 11 -27 12 -33 1 -6
-10 -10 -9 -14 4 -5 10 -3 14 5 9 7 -5 8 -3 3 5 -4 7 -18 11 -31 8 -13 -2 -23
-1 -22 2 0 3 0 13 -1 21 -1 13 -2 13 -11 0 -8 -13 -10 -12 -10 4 0 14 -5 17
-21 13 -14 -4 -19 -1 -16 7 3 7 -4 13 -15 13 -11 1 -28 11 -38 23 -13 15 -19
17 -23 8 -3 -8 -6 -6 -6 5 -1 10 -5 15 -11 12 -5 -3 -10 -1 -10 6 0 9 -3 9
-14 0 -11 -9 -17 -8 -28 7 -7 10 -21 21 -31 25 -11 4 -15 12 -11 18 4 8 3 9
-4 5 -7 -4 -12 -2 -12 5 0 9 -3 9 -14 0 -11 -10 -16 -8 -21 9 -5 15 -13 20
-26 17 -10 -3 -18 -2 -17 2 0 3 0 13 -1 21 -1 13 -2 13 -11 0 -7 -12 -10 -12
-10 -1 0 8 -6 11 -16 7 -12 -4 -15 -2 -11 9 4 8 2 17 -3 20 -6 4 -10 -1 -10
-10 0 -9 -5 -13 -10 -10 -6 4 -8 11 -5 16 4 5 -3 9 -15 9 -12 0 -18 5 -15 10
3 6 -3 10 -15 10 -12 0 -18 5 -15 10 3 6 1 10 -4 10 -6 0 -11 -6 -12 -12 0 -7
-4 -3 -9 10 -10 25 -29 28 -50 10 -13 -11 -13 -11 -2 2 18 21 15 30 -14 30
-14 0 -23 4 -19 10 5 9 -15 15 -37 11 -4 0 -5 6 -2 13 4 11 0 13 -15 9 -12 -3
-21 -1 -21 6 0 6 -7 11 -16 11 -9 0 -14 6 -11 13 4 10 -2 13 -20 9 -18 -3 -24
-1 -19 7 4 6 2 11 -4 11 -6 0 -8 5 -4 12 4 7 3 8 -5 4 -6 -4 -9 -13 -5 -19 3
-7 -1 -4 -10 7 -9 11 -21 16 -32 12 -13 -5 -14 -4 -6 7 9 10 9 14 -1 15 -6 1
-24 3 -39 6 -20 3 -28 0 -28 -10z m40 2 c0 -3 -4 -8 -10 -11 -5 -3 -10 -1 -10
4 0 6 5 11 10 11 6 0 10 -2 10 -4z m921 -523 c13 -16 12 -17 -3 -4 -17 13 -22
21 -14 21 2 0 10 -8 17 -17z m-2801 -541 c0 -4 -10 -13 -22 -21 -23 -14 -23
-14 -4 8 20 22 26 25 26 13z m-295 -762 c3 -5 1 -10 -4 -10 -6 0 -11 5 -11 10
0 6 2 10 4 10 3 0 8 -4 11 -10z m10 -1458 c-3 -3 -11 0 -18 7 -9 10 -8 11 6 5
10 -3 15 -9 12 -12z m5 -342 c0 -5 -5 -10 -11 -10 -5 0 -7 5 -4 10 3 6 8 10
11 10 2 0 4 -4 4 -10z m3983 -345 c-3 -9 -8 -14 -10 -11 -3 3 -2 9 2 15 9 16
15 13 8 -4z m-1364 -808 c-2 -1 -11 -8 -21 -15 -12 -10 -18 -10 -24 -1 -4 7
-3 9 4 5 6 -3 13 -2 17 4 3 5 11 10 17 10 6 0 9 -1 7 -3z"/>
<path d="M4630 6161 c0 -6 4 -13 10 -16 6 -3 7 1 4 9 -7 18 -14 21 -14 7z"/>
<path d="M3215 6089 c-4 -6 -5 -12 -2 -15 2 -3 7 2 10 11 7 17 1 20 -8 4z"/>
<path d="M5015 5940 c3 -5 8 -10 11 -10 2 0 4 5 4 10 0 6 -5 10 -11 10 -5 0
-7 -4 -4 -10z"/>
<path d="M2925 5920 c-3 -6 1 -7 9 -4 18 7 21 14 7 14 -6 0 -13 -4 -16 -10z"/>
<path d="M1818 4403 c7 -3 16 -2 19 1 4 3 -2 6 -13 5 -11 0 -14 -3 -6 -6z"/>
<path d="M1813 4247 c0 -8 6 -14 14 -14 9 0 10 4 2 14 -6 7 -12 13 -14 13 -1
0 -2 -6 -2 -13z"/>
<path d="M1815 4191 c-3 -5 -2 -12 3 -15 5 -3 9 1 9 9 0 17 -3 19 -12 6z"/>
<path d="M1815 4051 c-3 -5 -2 -12 3 -15 5 -3 9 1 9 9 0 17 -3 19 -12 6z"/>
<path d="M1818 3643 c7 -3 16 -2 19 1 4 3 -2 6 -13 5 -11 0 -14 -3 -6 -6z"/>
<path d="M1815 3560 c4 -6 11 -8 16 -5 14 9 11 15 -7 15 -8 0 -12 -5 -9 -10z"/>
<path d="M1813 3525 c0 -8 4 -12 9 -9 5 3 6 10 3 15 -9 13 -12 11 -12 -6z"/>
<path d="M1820 3349 c0 -5 5 -7 10 -4 6 3 10 8 10 11 0 2 -4 4 -10 4 -5 0 -10
-5 -10 -11z"/>
<path d="M6185 3161 c-3 -5 -2 -12 3 -15 5 -3 9 1 9 9 0 17 -3 19 -12 6z"/>
<path d="M1835 2720 c3 -5 8 -10 11 -10 2 0 4 5 4 10 0 6 -5 10 -11 10 -5 0
-7 -4 -4 -10z"/>
<path d="M2010 2616 c0 -2 8 -10 18 -17 15 -13 16 -12 3 4 -13 16 -21 21 -21
13z"/>
<path d="M5795 2509 c-4 -6 -5 -12 -2 -15 2 -3 7 2 10 11 7 17 1 20 -8 4z"/>
<path d="M5719 2463 c-12 -16 -12 -17 2 -6 9 7 20 9 24 5 5 -4 5 -1 1 6 -9 16
-11 15 -27 -5z"/>
<path d="M5155 2130 c-3 -5 -1 -10 4 -10 6 0 11 5 11 10 0 6 -2 10 -4 10 -3 0
-8 -4 -11 -10z"/>
<path d="M3836 1572 c-3 -5 1 -9 9 -9 8 0 12 4 9 9 -3 4 -7 8 -9 8 -2 0 -6 -4
-9 -8z"/>
</g>
</svg>
